<svg width="100" height="100" viewBox="0 0 100 100" xmlns="http://www.w3.org/2000/svg">
  <!-- Background Circle -->
  <circle cx="50" cy="50" r="48" fill="#12534d" stroke="#8fe4db" stroke-width="2"/>
  
  <!-- Island Shape -->
  <path d="M25 45 Q35 35 50 40 Q65 35 75 45 Q70 65 50 70 Q30 65 25 45 Z" fill="#2c7a73"/>
  
  <!-- Palm Tree -->
  <rect x="48" y="35" width="4" height="25" fill="#8B4513"/>
  <path d="M50 35 Q45 30 40 32 Q45 35 50 35" fill="#228B22"/>
  <path d="M50 35 Q55 30 60 32 Q55 35 50 35" fill="#228B22"/>
  <path d="M50 35 Q48 28 45 30 Q48 33 50 35" fill="#228B22"/>
  <path d="M50 35 Q52 28 55 30 Q52 33 50 35" fill="#228B22"/>
  
  <!-- Waves -->
  <path d="M20 75 Q30 70 40 75 Q50 80 60 75 Q70 70 80 75" stroke="#8fe4db" stroke-width="2" fill="none"/>
  <path d="M25 80 Q35 75 45 80 Q55 85 65 80 Q75 75 85 80" stroke="#8fe4db" stroke-width="1.5" fill="none"/>
  
  <!-- Text -->
  <text x="50" y="92" text-anchor="middle" font-family="Arial, sans-serif" font-size="8" fill="#8fe4db" font-weight="bold">SRI LANKA</text>
</svg>